:FULLY-SPECIFIED
:FORCE-ALL-JOINTS-BE-3DOF
:DEGREES
453
root 10.7877 17.4541 27.6639 5.27469 0.727619 2.30282
lfemur -18.533 3.83289 -28.522
ltibia 26.0848 -0 0
lfoot -12.8194 4.78595 -0.0026927
ltoes 0.175525 -0 0
rfemur -19.8967 -2.25452 17.0013
rtibia 65.322 -0 0
rfoot -9.03426 -8.2297 -0.00528284
rtoes -19.185 0 0
lowerback -5.45933 -1.18761 -2.90082
upperback -1.50903 -1.44634 1.33265
thorax 1.61046 -0.729912 2.89523
lowerneck -21.0633 -4.02486 -11.8109
upperneck 24.3217 -4.72257 10.6347
head 12.0457 -1.87027 5.24818
lclavicle 2.62644e-14 2.22639e-14 0
lhumerus -25.5381 -12.0738 89.7885
lradius 20.7877 -0 0
lwrist -4.56106 0 0
lhand -11.2191 -23.4344 -5.67027e-05
lfingers 7.12502 -0 0
lthumb 14.8095 6.01673 5.16329e-05
rclavicle 2.62644e-14 2.22639e-14 0
rhumerus -45.4698 10.5851 -88.2806
rradius 34.3083 -0 0
rwrist -12.6891 0 0
rhand -30.4029 -31.7239 0.000516893
rfingers 7.12502 -0 0
rthumb -3.7066 -61.6715 0.000497888
454
root 10.7873 17.4459 27.7925 5.24277 0.816778 2.45546
lfemur -17.7664 3.85618 -28.6868
ltibia 25.7122 -0 0
lfoot -12.9222 4.72597 -0.0052054
ltoes 0.360386 -0 0
rfemur -20.6311 -2.12281 16.7632
rtibia 65.4434 -0 0
rfoot -9.38176 -8.39509 -0.0108503
rtoes -18.9223 0 0
lowerback -5.4278 -1.29414 -3.01471
upperback -1.49465 -1.58131 1.30589
thorax 1.6185 -0.798554 2.91545
lowerneck -21.1043 -3.97721 -11.7668
upperneck 24.3652 -4.66285 10.6163
head 12.06 -1.841 5.24522
lclavicle 2.62644e-14 2.22639e-14 0
lhumerus -25.0615 -12.2774 89.6791
lradius 20.9417 -0 0
lwrist -4.50988 0 0
lhand -11.3201 -23.5028 3.14121e-05
lfingers 7.12502 -0 0
lthumb 14.7123 5.95574 0.000226368
rclavicle 2.62644e-14 2.22639e-14 0
rhumerus -45.7012 10.5032 -88.2544
rradius 34.2961 -0 0
rwrist -12.7399 0 0
rhand -30.3937 -31.6777 0.00129376
rfingers 7.12502 -0 0
rthumb -3.69766 -61.6254 0.0012463
455
root 10.7868 17.4376 27.921 5.2124 0.910207 2.60224
lfemur -16.9692 3.87138 -28.8351
ltibia 25.2953 -0 0
lfoot -13.0248 4.6713 -0.00753441
ltoes 0.53454 -0 0
rfemur -21.3591 -1.95052 16.5245
rtibia 65.432 -0 0
rfoot -9.75847 -8.54451 -0.0167131
rtoes -18.6226 0 0
lowerback -5.40087 -1.40248 -3.12604
upperback -1.47699 -1.71883 1.28114
thorax 1.63343 -0.86861 2.93612
lowerneck -21.1458 -3.92924 -11.7211
upperneck 24.4076 -4.60417 10.6015
head 12.0744 -1.81159 5.2432
lclavicle 2.62644e-14 2.22639e-14 0
lhumerus -24.5964 -12.4991 89.5707
lradius 21.1256 -0 0
lwrist -4.42919 0 0
lhand -11.4215 -23.5731 0.000246177
lfingers 7.12502 -0 0
lthumb 14.6146 5.89265 0.000507798
rclavicle 2.62644e-14 2.22639e-14 0
rhumerus -45.9249 10.4199 -88.2226
rradius 34.2906 -0 0
rwrist -12.8045 0 0
rhand -30.3809 -31.6092 0.00230841
rfingers 7.12502 -0 0
rthumb -3.68532 -61.5571 0.00222385
456
root 10.7863 17.4294 28.0496 5.18353 1.00763 2.74333
lfemur -16.1433 3.87873 -28.9677
ltibia 24.8364 -0 0
lfoot -13.1269 4.62175 -0.00967674
ltoes 0.698344 -0 0
rfemur -22.0806 -1.73976 16.2845
rtibia 65.2941 -0 0
rfoot -10.1627 -8.67857 -0.022856
rtoes -18.2876 0 0
lowerback -5.37833 -1.51248 -3.23484
upperback -1.45621 -1.85868 1.25832
thorax 1.65492 -0.939963 2.95717
lowerneck -21.1878 -3.88101 -11.6738
upperneck 24.4489 -4.54654 10.59
head 12.0887 -1.78207 5.24207
lclavicle 2.62644e-14 2.22639e-14 0
lhumerus -24.1425 -12.738 89.4632
lradius 21.3379 -0 0
lwrist -4.3204 0 0
lhand -11.5232 -23.6454 0.000570138
lfingers 7.12502 -0 0
lthumb 14.5165 5.82761 0.000880171
rclavicle 2.62644e-14 2.22639e-14 0
rhumerus -46.1413 10.3354 -88.1857
rradius 34.2915 -0 0
rwrist -12.8822 0 0
rhand -30.3648 -31.5196 0.00353531
rfingers 7.12502 -0 0
rthumb -3.66974 -61.4677 0.00340594
457
root 10.7859 17.4212 28.1782 5.15612 1.10877 2.87888
lfemur -15.2908 3.87846 -29.0854
ltibia 24.3379 -0 0
lfoot -13.2286 4.57712 -0.0116301
ltoes 0.852156 -0 0
rfemur -22.7955 -1.49264 16.0427
rtibia 65.0356 -0 0
rfoot -10.5929 -8.79789 -0.0292421
rtoes -17.9194 0 0
lowerback -5.35999 -1.62396 -3.34113
upperback -1.43248 -2.00064 1.23733
thorax 1.68264 -1.0125 2.97857
lowerneck -21.2302 -3.83256 -11.6251
upperneck 24.489 -4.48994 10.5816
head 12.1029 -1.75248 5.24179
lclavicle 2.62644e-14 2.22639e-14 0
lhumerus -23.6995 -12.993 89.3563
lradius 21.5771 -0 0
lwrist -4.18494 0 0
lhand -11.6252 -23.7194 0.00098658
lfingers 7.12502 -0 0
lthumb 14.4183 5.76076 0.00132842
rclavicle 2.62644e-14 2.22639e-14 0
rhumerus -46.3504 10.2498 -88.1438
rradius 34.2984 -0 0
rwrist -12.9725 0 0
rhand -30.3455 -31.4099 0.00494622
rfingers 7.12502 -0 0
rthumb -3.65108 -61.3582 0.00476534
458
root 10.7854 17.413 28.3068 5.13014 1.21335 3.00904
lfemur -14.4136 3.87078 -29.189
ltibia 23.802 -0 0
lfoot -13.3298 4.53719 -0.0133929
ltoes 0.996334 -0 0
rfemur -23.504 -1.21129 15.7987
rtibia 64.6629 -0 0
rfoot -11.0474 -8.90309 -0.0358161
rtoes -17.52 0 0
lowerback -5.34566 -1.73679 -3.44493
upperback -1.40598 -2.14448 1.2181
thorax 1.71625 -1.0861 3.00025
lowerneck -21.273 -3.78395 -11.5752
upperneck 24.5281 -4.43439 10.5763
head 12.1171 -1.72283 5.24232
lclavicle 2.62644e-14 2.22639e-14 0
lhumerus -23.2672 -13.2633 89.2499
lradius 21.8416 -0 0
lwrist -4.02423 0 0
lhand -11.7273 -23.7949 0.00147954
lfingers 7.12502 -0 0
lthumb 14.3199 5.69224 0.00183816
rclavicle 2.62644e-14 2.22639e-14 0
rhumerus -46.5526 10.1632 -88.0972
rradius 34.3019 -0 0
rwrist -13.0744 0 0
rhand -30.3231 -31.2811 0.0065108
rfingers 7.12502 -0 0
rthumb -3.62952 -61.2297 0.00627285
459
root 10.785 17.4047 28.4354 5.10555 1.3211 3.13397
lfemur -13.5138 3.85591 -29.2792
ltibia 23.2313 -0 0
lfoot -13.4304 4.50177 -0.0149644
ltoes 1.13124 -0 0
rfemur -24.2059 -0.89783 15.5519
rtibia 64.1819 -0 0
rfoot -11.5245 -8.99477 -0.0425078
rtoes -17.0912 0 0
lowerback -5.33513 -1.85078 -3.54627
upperback -1.37686 -2.28997 1.20054
thorax 1.75543 -1.16064 3.02218
lowerneck -21.3161 -3.73522 -11.524
upperneck 24.5661 -4.37988 10.574
head 12.1313 -1.69317 5.24361
lclavicle 2.62644e-14 2.22639e-14 0
lhumerus -22.8452 -13.5476 89.1438
lradius 22.13 -0 0
lwrist -3.8397 0 0
lhand -11.8294 -23.8719 0.00203384
lfingers 7.12502 -0 0
lthumb 14.2215 5.62222 0.00239574
rclavicle 2.62644e-14 2.22639e-14 0
rhumerus -46.7479 10.0759 -88.0462
rradius 34.3291 -0 0
rwrist -13.1875 0 0
rhand -30.298 -31.1344 0.00819723
rfingers 7.12502 -0 0
rthumb -3.60522 -61.0834 0.00789778
460
root 10.7845 17.3965 28.564 5.08231 1.43175 3.25381
lfemur -12.5936 3.83408 -29.3569
ltibia 22.6281 -0 0
lfoot -13.5304 4.47066 -0.0163445
ltoes 1.25722 -0 0
rfemur -24.9011 -0.554383 15.3022
rtibia 63.5988 -0 0
rfoot -12.0227 -9.07355 -0.0492355
rtoes -16.635 0 0
lowerback -5.32821 -1.9658 -3.64517
upperback -1.3453 -2.43689 1.18456
thorax 1.79985 -1.23602 3.04431
lowerneck -21.3595 -3.68642 -11.4718
upperneck 24.6031 -4.32642 10.5743
head 12.1453 -1.66351 5.24563
lclavicle 2.62644e-14 2.22639e-14 0
lhumerus -22.4333 -13.8451 89.0379
lradius 22.4406 -0 0
lwrist -3.63277 0 0
lhand -11.9315 -23.9501 0.00263507
lfingers 7.12502 -0 0
lthumb 14.1231 5.55082 0.00298822
rclavicle 2.62644e-14 2.22639e-14 0
rhumerus -46.9365 9.98796 -87.9911
rradius 34.3524 -0 0
rwrist -13.3109 0 0
rhand -30.2701 -30.9709 0.00997274
rfingers 7.12502 -0 0
rthumb -3.57834 -60.9202 0.00960856
461
root 10.784 17.3883 28.6925 5.06037 1.54502 3.36874
lfemur -11.6548 3.80549 -29.4229
ltibia 21.9946 -0 0
lfoot -13.6297 4.44364 -0.0175339
ltoes 1.37464 -0 0
rfemur -25.5898 -0.183074 15.0492
rtibia 62.9198 -0 0
rfoot -12.5402 -9.14004 -0.0559087
rtoes -16.1534 0 0
lowerback -5.3247 -2.08166 -3.74165
upperback -1.31146 -2.58501 1.17007
thorax 1.84917 -1.31212 3.06658
lowerneck -21.403 -3.6376 -11.4187
upperneck 24.6391 -4.274 10.5772
head 12.1593 -1.6339 5.24833
lclavicle 2.62644e-14 2.22639e-14 0
lhumerus -22.0313 -14.1548 88.9321
lradius 22.772 -0 0
lwrist -3.40487 0 0
lhand -12.0334 -24.0295 0.00326962
lfingers 7.12502 -0 0
lthumb 14.0249 5.47819 0.00360342
rclavicle 2.62644e-14 2.22639e-14 0
rhumerus -47.1187 9.89951 -87.9321
rradius 34.3804 -0 0
rwrist -13.4441 0 0
rhand -30.2398 -30.7916 0.0118041
rfingers 7.12502 -0 0
rthumb -3.54905 -60.7413 0.0113732
